<mxfile host="app.diagrams.net" agent="Mozilla/5.0 (Windows NT 10.0; Win64; x64) AppleWebKit/537.36 (KHTML, like Gecko) Chrome/135.0.0.0 Safari/537.36" version="26.2.14">
  <diagram name="Page-1" id="IrTlBUPpmgUFjL3WfEIQ">
    <mxGraphModel dx="1830" dy="774" grid="1" gridSize="10" guides="1" tooltips="1" connect="1" arrows="1" fold="1" page="1" pageScale="1" pageWidth="827" pageHeight="1169" math="0" shadow="0">
      <root>
        <mxCell id="0" />
        <mxCell id="1" parent="0" />
        <mxCell id="YVw0PT_iwyBrZhyOGW0D-64" value="" style="group" vertex="1" connectable="0" parent="1">
          <mxGeometry x="620" y="1860" width="230" height="110" as="geometry" />
        </mxCell>
        <mxCell id="YVw0PT_iwyBrZhyOGW0D-65" value="" style="rounded=1;whiteSpace=wrap;html=1;" vertex="1" parent="1">
          <mxGeometry x="950" y="1170" width="260" height="540" as="geometry" />
        </mxCell>
        <mxCell id="YVw0PT_iwyBrZhyOGW0D-66" value="User&lt;div&gt;&lt;br&gt;&lt;/div&gt;" style="shape=umlActor;verticalLabelPosition=bottom;verticalAlign=top;html=1;outlineConnect=0;" vertex="1" parent="1">
          <mxGeometry x="800" y="1618" width="30" height="60" as="geometry" />
        </mxCell>
        <mxCell id="YVw0PT_iwyBrZhyOGW0D-67" value="&lt;div&gt;&lt;span style=&quot;font-size: 18px;&quot;&gt;Users&lt;/span&gt;&lt;/div&gt;" style="rounded=0;whiteSpace=wrap;html=1;" vertex="1" parent="1">
          <mxGeometry x="1020" y="1170" width="120" height="60" as="geometry" />
        </mxCell>
        <mxCell id="YVw0PT_iwyBrZhyOGW0D-68" value="&lt;span style=&quot;font-size: 18px;&quot;&gt;Create&lt;/span&gt;" style="ellipse;whiteSpace=wrap;html=1;" vertex="1" parent="1">
          <mxGeometry x="1020" y="1250" width="120" height="80" as="geometry" />
        </mxCell>
        <mxCell id="YVw0PT_iwyBrZhyOGW0D-69" value="&lt;div&gt;Manager&lt;/div&gt;" style="shape=umlActor;verticalLabelPosition=bottom;verticalAlign=top;html=1;outlineConnect=0;" vertex="1" parent="1">
          <mxGeometry x="800" y="1260" width="30" height="60" as="geometry" />
        </mxCell>
        <mxCell id="YVw0PT_iwyBrZhyOGW0D-70" value="&lt;div&gt;Admin&lt;/div&gt;" style="shape=umlActor;verticalLabelPosition=bottom;verticalAlign=top;html=1;outlineConnect=0;" vertex="1" parent="1">
          <mxGeometry x="810" y="1440" width="30" height="60" as="geometry" />
        </mxCell>
        <mxCell id="YVw0PT_iwyBrZhyOGW0D-71" value="&lt;span style=&quot;font-size: 18px;&quot;&gt;Edit&lt;/span&gt;" style="ellipse;whiteSpace=wrap;html=1;" vertex="1" parent="1">
          <mxGeometry x="1020" y="1340" width="120" height="80" as="geometry" />
        </mxCell>
        <mxCell id="YVw0PT_iwyBrZhyOGW0D-72" value="&lt;span style=&quot;font-size: 18px;&quot;&gt;Delete&lt;/span&gt;" style="ellipse;whiteSpace=wrap;html=1;" vertex="1" parent="1">
          <mxGeometry x="1020" y="1430" width="120" height="80" as="geometry" />
        </mxCell>
        <mxCell id="YVw0PT_iwyBrZhyOGW0D-73" value="&lt;span style=&quot;font-size: 18px;&quot;&gt;Read_all&lt;/span&gt;" style="ellipse;whiteSpace=wrap;html=1;" vertex="1" parent="1">
          <mxGeometry x="1020" y="1520" width="120" height="80" as="geometry" />
        </mxCell>
        <mxCell id="YVw0PT_iwyBrZhyOGW0D-74" value="&lt;span style=&quot;font-size: 18px;&quot;&gt;Read_one&lt;/span&gt;" style="ellipse;whiteSpace=wrap;html=1;" vertex="1" parent="1">
          <mxGeometry x="1020" y="1610" width="120" height="80" as="geometry" />
        </mxCell>
        <mxCell id="YVw0PT_iwyBrZhyOGW0D-75" value="" style="endArrow=none;html=1;rounded=0;entryX=0;entryY=0.5;entryDx=0;entryDy=0;" edge="1" parent="1" source="YVw0PT_iwyBrZhyOGW0D-66" target="YVw0PT_iwyBrZhyOGW0D-68">
          <mxGeometry width="50" height="50" relative="1" as="geometry">
            <mxPoint x="1060" y="1450" as="sourcePoint" />
            <mxPoint x="1110" y="1400" as="targetPoint" />
          </mxGeometry>
        </mxCell>
        <mxCell id="YVw0PT_iwyBrZhyOGW0D-76" value="" style="endArrow=none;html=1;rounded=0;entryX=0;entryY=0.5;entryDx=0;entryDy=0;" edge="1" parent="1" source="YVw0PT_iwyBrZhyOGW0D-69" target="YVw0PT_iwyBrZhyOGW0D-68">
          <mxGeometry width="50" height="50" relative="1" as="geometry">
            <mxPoint x="870" y="1488" as="sourcePoint" />
            <mxPoint x="1040" y="1460" as="targetPoint" />
          </mxGeometry>
        </mxCell>
        <mxCell id="YVw0PT_iwyBrZhyOGW0D-77" value="" style="endArrow=none;html=1;rounded=0;exitX=0;exitY=0.5;exitDx=0;exitDy=0;" edge="1" parent="1" source="YVw0PT_iwyBrZhyOGW0D-68" target="YVw0PT_iwyBrZhyOGW0D-70">
          <mxGeometry width="50" height="50" relative="1" as="geometry">
            <mxPoint x="870" y="1338" as="sourcePoint" />
            <mxPoint x="1040" y="1310" as="targetPoint" />
          </mxGeometry>
        </mxCell>
        <mxCell id="YVw0PT_iwyBrZhyOGW0D-78" value="" style="endArrow=none;html=1;rounded=0;exitX=0;exitY=0.5;exitDx=0;exitDy=0;" edge="1" parent="1" source="YVw0PT_iwyBrZhyOGW0D-71" target="YVw0PT_iwyBrZhyOGW0D-70">
          <mxGeometry width="50" height="50" relative="1" as="geometry">
            <mxPoint x="880" y="1348" as="sourcePoint" />
            <mxPoint x="1050" y="1320" as="targetPoint" />
          </mxGeometry>
        </mxCell>
        <mxCell id="YVw0PT_iwyBrZhyOGW0D-79" value="" style="endArrow=none;html=1;rounded=0;exitX=0;exitY=0.5;exitDx=0;exitDy=0;" edge="1" parent="1" source="YVw0PT_iwyBrZhyOGW0D-72" target="YVw0PT_iwyBrZhyOGW0D-70">
          <mxGeometry width="50" height="50" relative="1" as="geometry">
            <mxPoint x="890" y="1358" as="sourcePoint" />
            <mxPoint x="1060" y="1330" as="targetPoint" />
          </mxGeometry>
        </mxCell>
        <mxCell id="YVw0PT_iwyBrZhyOGW0D-80" value="" style="endArrow=none;html=1;rounded=0;exitX=0;exitY=0.5;exitDx=0;exitDy=0;" edge="1" parent="1" source="YVw0PT_iwyBrZhyOGW0D-73" target="YVw0PT_iwyBrZhyOGW0D-70">
          <mxGeometry width="50" height="50" relative="1" as="geometry">
            <mxPoint x="900" y="1368" as="sourcePoint" />
            <mxPoint x="1070" y="1340" as="targetPoint" />
          </mxGeometry>
        </mxCell>
        <mxCell id="YVw0PT_iwyBrZhyOGW0D-81" value="" style="endArrow=none;html=1;rounded=0;exitX=0;exitY=0.5;exitDx=0;exitDy=0;" edge="1" parent="1" source="YVw0PT_iwyBrZhyOGW0D-74" target="YVw0PT_iwyBrZhyOGW0D-70">
          <mxGeometry width="50" height="50" relative="1" as="geometry">
            <mxPoint x="910" y="1378" as="sourcePoint" />
            <mxPoint x="1080" y="1350" as="targetPoint" />
          </mxGeometry>
        </mxCell>
        <mxCell id="YVw0PT_iwyBrZhyOGW0D-82" value="" style="endArrow=none;html=1;rounded=0;entryX=0;entryY=0.5;entryDx=0;entryDy=0;" edge="1" parent="1" source="YVw0PT_iwyBrZhyOGW0D-66" target="YVw0PT_iwyBrZhyOGW0D-71">
          <mxGeometry width="50" height="50" relative="1" as="geometry">
            <mxPoint x="920" y="1388" as="sourcePoint" />
            <mxPoint x="1090" y="1360" as="targetPoint" />
          </mxGeometry>
        </mxCell>
        <mxCell id="YVw0PT_iwyBrZhyOGW0D-83" value="" style="endArrow=none;html=1;rounded=0;entryX=0;entryY=0.5;entryDx=0;entryDy=0;" edge="1" parent="1" source="YVw0PT_iwyBrZhyOGW0D-66" target="YVw0PT_iwyBrZhyOGW0D-72">
          <mxGeometry width="50" height="50" relative="1" as="geometry">
            <mxPoint x="930" y="1398" as="sourcePoint" />
            <mxPoint x="1100" y="1370" as="targetPoint" />
          </mxGeometry>
        </mxCell>
        <mxCell id="YVw0PT_iwyBrZhyOGW0D-84" value="" style="endArrow=none;html=1;rounded=0;entryX=0;entryY=0.5;entryDx=0;entryDy=0;" edge="1" parent="1" source="YVw0PT_iwyBrZhyOGW0D-66" target="YVw0PT_iwyBrZhyOGW0D-74">
          <mxGeometry width="50" height="50" relative="1" as="geometry">
            <mxPoint x="940" y="1408" as="sourcePoint" />
            <mxPoint x="1110" y="1380" as="targetPoint" />
          </mxGeometry>
        </mxCell>
        <mxCell id="YVw0PT_iwyBrZhyOGW0D-85" value="" style="group" vertex="1" connectable="0" parent="1">
          <mxGeometry x="1230" y="2560" width="230" height="110" as="geometry" />
        </mxCell>
        <mxCell id="YVw0PT_iwyBrZhyOGW0D-86" value="" style="group" vertex="1" connectable="0" parent="YVw0PT_iwyBrZhyOGW0D-85">
          <mxGeometry width="230" height="110" as="geometry" />
        </mxCell>
        <mxCell id="YVw0PT_iwyBrZhyOGW0D-87" style="edgeStyle=orthogonalEdgeStyle;rounded=0;orthogonalLoop=1;jettySize=auto;html=1;exitX=0.5;exitY=1;exitDx=0;exitDy=0;exitPerimeter=0;" edge="1" parent="YVw0PT_iwyBrZhyOGW0D-86">
          <mxGeometry relative="1" as="geometry">
            <mxPoint x="114.99999999999955" y="110.00000000000023" as="sourcePoint" />
            <mxPoint x="114.99999999999955" y="110.00000000000023" as="targetPoint" />
          </mxGeometry>
        </mxCell>
        <mxCell id="YVw0PT_iwyBrZhyOGW0D-88" value="" style="group" vertex="1" connectable="0" parent="1">
          <mxGeometry x="2460" y="2590" width="230" height="110" as="geometry" />
        </mxCell>
        <mxCell id="YVw0PT_iwyBrZhyOGW0D-89" value="" style="group" vertex="1" connectable="0" parent="YVw0PT_iwyBrZhyOGW0D-88">
          <mxGeometry width="230" height="110" as="geometry" />
        </mxCell>
        <mxCell id="YVw0PT_iwyBrZhyOGW0D-90" style="edgeStyle=orthogonalEdgeStyle;rounded=0;orthogonalLoop=1;jettySize=auto;html=1;exitX=0.5;exitY=1;exitDx=0;exitDy=0;exitPerimeter=0;" edge="1" parent="YVw0PT_iwyBrZhyOGW0D-89">
          <mxGeometry relative="1" as="geometry">
            <mxPoint x="114.99999999999955" y="110.00000000000023" as="sourcePoint" />
            <mxPoint x="114.99999999999955" y="110.00000000000023" as="targetPoint" />
          </mxGeometry>
        </mxCell>
        <mxCell id="YVw0PT_iwyBrZhyOGW0D-91" value="" style="rounded=1;whiteSpace=wrap;html=1;" vertex="1" parent="1">
          <mxGeometry x="460" y="1200" width="260" height="510" as="geometry" />
        </mxCell>
        <mxCell id="YVw0PT_iwyBrZhyOGW0D-92" value="User&lt;div&gt;&lt;br&gt;&lt;/div&gt;" style="shape=umlActor;verticalLabelPosition=bottom;verticalAlign=top;html=1;outlineConnect=0;" vertex="1" parent="1">
          <mxGeometry x="360" y="1550" width="30" height="60" as="geometry" />
        </mxCell>
        <mxCell id="YVw0PT_iwyBrZhyOGW0D-93" value="&lt;font style=&quot;font-size: 18px;&quot;&gt;Auth&lt;/font&gt;&lt;div&gt;&lt;br&gt;&lt;/div&gt;" style="rounded=0;whiteSpace=wrap;html=1;" vertex="1" parent="1">
          <mxGeometry x="530" y="1200" width="120" height="60" as="geometry" />
        </mxCell>
        <mxCell id="YVw0PT_iwyBrZhyOGW0D-94" value="" style="ellipse;whiteSpace=wrap;html=1;" vertex="1" parent="1">
          <mxGeometry x="530" y="1415" width="120" height="80" as="geometry" />
        </mxCell>
        <mxCell id="YVw0PT_iwyBrZhyOGW0D-95" value="&lt;font style=&quot;font-size: 18px;&quot;&gt;Login&lt;/font&gt;" style="text;html=1;align=center;verticalAlign=middle;whiteSpace=wrap;rounded=0;" vertex="1" parent="1">
          <mxGeometry x="561" y="1440" width="60" height="30" as="geometry" />
        </mxCell>
        <mxCell id="YVw0PT_iwyBrZhyOGW0D-96" value="&lt;div&gt;Manager&lt;/div&gt;" style="shape=umlActor;verticalLabelPosition=bottom;verticalAlign=top;html=1;outlineConnect=0;" vertex="1" parent="1">
          <mxGeometry x="360" y="1425" width="30" height="60" as="geometry" />
        </mxCell>
        <mxCell id="YVw0PT_iwyBrZhyOGW0D-97" value="&lt;div&gt;Admin&lt;/div&gt;" style="shape=umlActor;verticalLabelPosition=bottom;verticalAlign=top;html=1;outlineConnect=0;" vertex="1" parent="1">
          <mxGeometry x="360" y="1310" width="30" height="60" as="geometry" />
        </mxCell>
        <mxCell id="YVw0PT_iwyBrZhyOGW0D-98" value="" style="endArrow=none;html=1;rounded=0;entryX=0;entryY=0.5;entryDx=0;entryDy=0;" edge="1" parent="1" source="YVw0PT_iwyBrZhyOGW0D-96" target="YVw0PT_iwyBrZhyOGW0D-94">
          <mxGeometry width="50" height="50" relative="1" as="geometry">
            <mxPoint x="530" y="1570" as="sourcePoint" />
            <mxPoint x="580" y="1520" as="targetPoint" />
          </mxGeometry>
        </mxCell>
        <mxCell id="YVw0PT_iwyBrZhyOGW0D-99" value="" style="endArrow=none;html=1;rounded=0;entryX=0;entryY=0.5;entryDx=0;entryDy=0;" edge="1" parent="1" source="YVw0PT_iwyBrZhyOGW0D-92" target="YVw0PT_iwyBrZhyOGW0D-94">
          <mxGeometry width="50" height="50" relative="1" as="geometry">
            <mxPoint x="360" y="1354" as="sourcePoint" />
            <mxPoint x="548" y="1320" as="targetPoint" />
          </mxGeometry>
        </mxCell>
        <mxCell id="YVw0PT_iwyBrZhyOGW0D-100" value="" style="endArrow=none;html=1;rounded=0;exitX=0;exitY=0.5;exitDx=0;exitDy=0;" edge="1" parent="1" source="YVw0PT_iwyBrZhyOGW0D-94" target="YVw0PT_iwyBrZhyOGW0D-97">
          <mxGeometry width="50" height="50" relative="1" as="geometry">
            <mxPoint x="660" y="1440" as="sourcePoint" />
            <mxPoint x="848" y="1406" as="targetPoint" />
          </mxGeometry>
        </mxCell>
        <mxCell id="YVw0PT_iwyBrZhyOGW0D-101" value="" style="group" vertex="1" connectable="0" parent="1">
          <mxGeometry x="2140" y="2070" width="230" height="110" as="geometry" />
        </mxCell>
        <mxCell id="YVw0PT_iwyBrZhyOGW0D-102" value="" style="group" vertex="1" connectable="0" parent="YVw0PT_iwyBrZhyOGW0D-101">
          <mxGeometry width="230" height="110" as="geometry" />
        </mxCell>
        <mxCell id="YVw0PT_iwyBrZhyOGW0D-103" style="edgeStyle=orthogonalEdgeStyle;rounded=0;orthogonalLoop=1;jettySize=auto;html=1;exitX=0.5;exitY=1;exitDx=0;exitDy=0;exitPerimeter=0;" edge="1" parent="YVw0PT_iwyBrZhyOGW0D-102">
          <mxGeometry relative="1" as="geometry">
            <mxPoint x="114.99999999999955" y="110.00000000000023" as="sourcePoint" />
            <mxPoint x="114.99999999999955" y="110.00000000000023" as="targetPoint" />
          </mxGeometry>
        </mxCell>
        <mxCell id="YVw0PT_iwyBrZhyOGW0D-104" value="" style="rounded=1;whiteSpace=wrap;html=1;" vertex="1" parent="1">
          <mxGeometry x="1500" y="1170" width="260" height="540" as="geometry" />
        </mxCell>
        <mxCell id="YVw0PT_iwyBrZhyOGW0D-105" value="User&lt;div&gt;&lt;br&gt;&lt;/div&gt;" style="shape=umlActor;verticalLabelPosition=bottom;verticalAlign=top;html=1;outlineConnect=0;" vertex="1" parent="1">
          <mxGeometry x="1350" y="1620" width="30" height="60" as="geometry" />
        </mxCell>
        <mxCell id="YVw0PT_iwyBrZhyOGW0D-106" value="&lt;div&gt;&lt;span style=&quot;font-size: 18px;&quot;&gt;Restaurants&lt;/span&gt;&lt;/div&gt;" style="rounded=0;whiteSpace=wrap;html=1;" vertex="1" parent="1">
          <mxGeometry x="1570" y="1170" width="120" height="60" as="geometry" />
        </mxCell>
        <mxCell id="YVw0PT_iwyBrZhyOGW0D-107" value="&lt;span style=&quot;font-size: 18px;&quot;&gt;Create&lt;/span&gt;" style="ellipse;whiteSpace=wrap;html=1;" vertex="1" parent="1">
          <mxGeometry x="1570" y="1250" width="120" height="80" as="geometry" />
        </mxCell>
        <mxCell id="YVw0PT_iwyBrZhyOGW0D-108" value="&lt;div&gt;Manager&lt;/div&gt;" style="shape=umlActor;verticalLabelPosition=bottom;verticalAlign=top;html=1;outlineConnect=0;" vertex="1" parent="1">
          <mxGeometry x="1350" y="1440" width="30" height="60" as="geometry" />
        </mxCell>
        <mxCell id="YVw0PT_iwyBrZhyOGW0D-109" value="&lt;div&gt;Admin&lt;/div&gt;" style="shape=umlActor;verticalLabelPosition=bottom;verticalAlign=top;html=1;outlineConnect=0;" vertex="1" parent="1">
          <mxGeometry x="1350" y="1260" width="30" height="60" as="geometry" />
        </mxCell>
        <mxCell id="YVw0PT_iwyBrZhyOGW0D-110" value="&lt;span style=&quot;font-size: 18px;&quot;&gt;Edit&lt;/span&gt;" style="ellipse;whiteSpace=wrap;html=1;" vertex="1" parent="1">
          <mxGeometry x="1570" y="1340" width="120" height="80" as="geometry" />
        </mxCell>
        <mxCell id="YVw0PT_iwyBrZhyOGW0D-111" value="&lt;span style=&quot;font-size: 18px;&quot;&gt;Delete&lt;/span&gt;" style="ellipse;whiteSpace=wrap;html=1;" vertex="1" parent="1">
          <mxGeometry x="1570" y="1430" width="120" height="80" as="geometry" />
        </mxCell>
        <mxCell id="YVw0PT_iwyBrZhyOGW0D-112" value="&lt;span style=&quot;font-size: 18px;&quot;&gt;Read_all&lt;/span&gt;" style="ellipse;whiteSpace=wrap;html=1;" vertex="1" parent="1">
          <mxGeometry x="1570" y="1520" width="120" height="80" as="geometry" />
        </mxCell>
        <mxCell id="YVw0PT_iwyBrZhyOGW0D-113" value="&lt;span style=&quot;font-size: 18px;&quot;&gt;Read_one&lt;/span&gt;" style="ellipse;whiteSpace=wrap;html=1;" vertex="1" parent="1">
          <mxGeometry x="1570" y="1610" width="120" height="80" as="geometry" />
        </mxCell>
        <mxCell id="YVw0PT_iwyBrZhyOGW0D-114" value="" style="endArrow=none;html=1;rounded=0;entryX=0;entryY=0.5;entryDx=0;entryDy=0;" edge="1" parent="1" source="YVw0PT_iwyBrZhyOGW0D-108" target="YVw0PT_iwyBrZhyOGW0D-107">
          <mxGeometry width="50" height="50" relative="1" as="geometry">
            <mxPoint x="1540" y="1450" as="sourcePoint" />
            <mxPoint x="1590" y="1400" as="targetPoint" />
          </mxGeometry>
        </mxCell>
        <mxCell id="YVw0PT_iwyBrZhyOGW0D-115" value="" style="endArrow=none;html=1;rounded=0;entryX=0;entryY=0.5;entryDx=0;entryDy=0;" edge="1" parent="1" source="YVw0PT_iwyBrZhyOGW0D-109" target="YVw0PT_iwyBrZhyOGW0D-107">
          <mxGeometry width="50" height="50" relative="1" as="geometry">
            <mxPoint x="1410" y="1585" as="sourcePoint" />
            <mxPoint x="1580" y="1594" as="targetPoint" />
          </mxGeometry>
        </mxCell>
        <mxCell id="YVw0PT_iwyBrZhyOGW0D-116" value="" style="endArrow=none;html=1;rounded=0;entryX=0;entryY=0.5;entryDx=0;entryDy=0;" edge="1" parent="1" source="YVw0PT_iwyBrZhyOGW0D-108" target="YVw0PT_iwyBrZhyOGW0D-110">
          <mxGeometry width="50" height="50" relative="1" as="geometry">
            <mxPoint x="1420" y="1301" as="sourcePoint" />
            <mxPoint x="1590" y="1310" as="targetPoint" />
          </mxGeometry>
        </mxCell>
        <mxCell id="YVw0PT_iwyBrZhyOGW0D-117" value="" style="endArrow=none;html=1;rounded=0;entryX=0;entryY=0.5;entryDx=0;entryDy=0;" edge="1" parent="1" source="YVw0PT_iwyBrZhyOGW0D-108" target="YVw0PT_iwyBrZhyOGW0D-111">
          <mxGeometry width="50" height="50" relative="1" as="geometry">
            <mxPoint x="1430" y="1311" as="sourcePoint" />
            <mxPoint x="1600" y="1320" as="targetPoint" />
          </mxGeometry>
        </mxCell>
        <mxCell id="YVw0PT_iwyBrZhyOGW0D-118" value="" style="endArrow=none;html=1;rounded=0;entryX=0;entryY=0.5;entryDx=0;entryDy=0;" edge="1" parent="1" source="YVw0PT_iwyBrZhyOGW0D-108" target="YVw0PT_iwyBrZhyOGW0D-113">
          <mxGeometry width="50" height="50" relative="1" as="geometry">
            <mxPoint x="1440" y="1321" as="sourcePoint" />
            <mxPoint x="1610" y="1330" as="targetPoint" />
          </mxGeometry>
        </mxCell>
        <mxCell id="YVw0PT_iwyBrZhyOGW0D-119" value="" style="endArrow=none;html=1;rounded=0;entryX=0;entryY=0.5;entryDx=0;entryDy=0;" edge="1" parent="1" source="YVw0PT_iwyBrZhyOGW0D-105" target="YVw0PT_iwyBrZhyOGW0D-112">
          <mxGeometry width="50" height="50" relative="1" as="geometry">
            <mxPoint x="1450" y="1331" as="sourcePoint" />
            <mxPoint x="1620" y="1340" as="targetPoint" />
          </mxGeometry>
        </mxCell>
        <mxCell id="YVw0PT_iwyBrZhyOGW0D-120" value="" style="endArrow=none;html=1;rounded=0;entryX=0;entryY=0.5;entryDx=0;entryDy=0;" edge="1" parent="1" source="YVw0PT_iwyBrZhyOGW0D-105" target="YVw0PT_iwyBrZhyOGW0D-113">
          <mxGeometry width="50" height="50" relative="1" as="geometry">
            <mxPoint x="1460" y="1341" as="sourcePoint" />
            <mxPoint x="1630" y="1350" as="targetPoint" />
          </mxGeometry>
        </mxCell>
        <mxCell id="YVw0PT_iwyBrZhyOGW0D-121" value="" style="endArrow=none;html=1;rounded=0;entryX=0;entryY=0.5;entryDx=0;entryDy=0;" edge="1" parent="1" source="YVw0PT_iwyBrZhyOGW0D-109" target="YVw0PT_iwyBrZhyOGW0D-110">
          <mxGeometry width="50" height="50" relative="1" as="geometry">
            <mxPoint x="1470" y="1351" as="sourcePoint" />
            <mxPoint x="1640" y="1360" as="targetPoint" />
          </mxGeometry>
        </mxCell>
        <mxCell id="YVw0PT_iwyBrZhyOGW0D-122" value="" style="endArrow=none;html=1;rounded=0;entryX=0;entryY=0.5;entryDx=0;entryDy=0;" edge="1" parent="1" source="YVw0PT_iwyBrZhyOGW0D-109" target="YVw0PT_iwyBrZhyOGW0D-111">
          <mxGeometry width="50" height="50" relative="1" as="geometry">
            <mxPoint x="1480" y="1361" as="sourcePoint" />
            <mxPoint x="1650" y="1370" as="targetPoint" />
          </mxGeometry>
        </mxCell>
        <mxCell id="YVw0PT_iwyBrZhyOGW0D-123" value="" style="endArrow=none;html=1;rounded=0;entryX=0;entryY=0.5;entryDx=0;entryDy=0;" edge="1" parent="1" source="YVw0PT_iwyBrZhyOGW0D-109" target="YVw0PT_iwyBrZhyOGW0D-113">
          <mxGeometry width="50" height="50" relative="1" as="geometry">
            <mxPoint x="1490" y="1371" as="sourcePoint" />
            <mxPoint x="1660" y="1380" as="targetPoint" />
          </mxGeometry>
        </mxCell>
        <mxCell id="YVw0PT_iwyBrZhyOGW0D-124" value="" style="rounded=1;whiteSpace=wrap;html=1;" vertex="1" parent="1">
          <mxGeometry x="2060" y="1154" width="260" height="540" as="geometry" />
        </mxCell>
        <mxCell id="YVw0PT_iwyBrZhyOGW0D-125" value="User&lt;div&gt;&lt;br&gt;&lt;/div&gt;" style="shape=umlActor;verticalLabelPosition=bottom;verticalAlign=top;html=1;outlineConnect=0;" vertex="1" parent="1">
          <mxGeometry x="1910" y="1604" width="30" height="60" as="geometry" />
        </mxCell>
        <mxCell id="YVw0PT_iwyBrZhyOGW0D-126" value="&lt;div&gt;&lt;span style=&quot;font-size: 18px;&quot;&gt;Categories&lt;/span&gt;&lt;/div&gt;" style="rounded=0;whiteSpace=wrap;html=1;" vertex="1" parent="1">
          <mxGeometry x="2130" y="1154" width="120" height="60" as="geometry" />
        </mxCell>
        <mxCell id="YVw0PT_iwyBrZhyOGW0D-127" value="&lt;span style=&quot;font-size: 18px;&quot;&gt;Create&lt;/span&gt;" style="ellipse;whiteSpace=wrap;html=1;" vertex="1" parent="1">
          <mxGeometry x="2130" y="1234" width="120" height="80" as="geometry" />
        </mxCell>
        <mxCell id="YVw0PT_iwyBrZhyOGW0D-128" value="&lt;div&gt;Manager&lt;/div&gt;" style="shape=umlActor;verticalLabelPosition=bottom;verticalAlign=top;html=1;outlineConnect=0;" vertex="1" parent="1">
          <mxGeometry x="1910" y="1424" width="30" height="60" as="geometry" />
        </mxCell>
        <mxCell id="YVw0PT_iwyBrZhyOGW0D-129" value="&lt;div&gt;Admin&lt;/div&gt;" style="shape=umlActor;verticalLabelPosition=bottom;verticalAlign=top;html=1;outlineConnect=0;" vertex="1" parent="1">
          <mxGeometry x="1910" y="1244" width="30" height="60" as="geometry" />
        </mxCell>
        <mxCell id="YVw0PT_iwyBrZhyOGW0D-130" value="&lt;span style=&quot;font-size: 18px;&quot;&gt;Edit&lt;/span&gt;" style="ellipse;whiteSpace=wrap;html=1;" vertex="1" parent="1">
          <mxGeometry x="2130" y="1324" width="120" height="80" as="geometry" />
        </mxCell>
        <mxCell id="YVw0PT_iwyBrZhyOGW0D-131" value="&lt;span style=&quot;font-size: 18px;&quot;&gt;Delete&lt;/span&gt;" style="ellipse;whiteSpace=wrap;html=1;" vertex="1" parent="1">
          <mxGeometry x="2130" y="1414" width="120" height="80" as="geometry" />
        </mxCell>
        <mxCell id="YVw0PT_iwyBrZhyOGW0D-132" value="&lt;span style=&quot;font-size: 18px;&quot;&gt;Read_all&lt;/span&gt;" style="ellipse;whiteSpace=wrap;html=1;" vertex="1" parent="1">
          <mxGeometry x="2130" y="1504" width="120" height="80" as="geometry" />
        </mxCell>
        <mxCell id="YVw0PT_iwyBrZhyOGW0D-133" value="&lt;span style=&quot;font-size: 18px;&quot;&gt;Read_one&lt;/span&gt;" style="ellipse;whiteSpace=wrap;html=1;" vertex="1" parent="1">
          <mxGeometry x="2130" y="1594" width="120" height="80" as="geometry" />
        </mxCell>
        <mxCell id="YVw0PT_iwyBrZhyOGW0D-134" value="" style="endArrow=none;html=1;rounded=0;exitX=0.5;exitY=0.5;exitDx=0;exitDy=0;exitPerimeter=0;entryX=0;entryY=0.5;entryDx=0;entryDy=0;" edge="1" parent="1" source="YVw0PT_iwyBrZhyOGW0D-129" target="YVw0PT_iwyBrZhyOGW0D-127">
          <mxGeometry width="50" height="50" relative="1" as="geometry">
            <mxPoint x="2180" y="1480" as="sourcePoint" />
            <mxPoint x="2230" y="1430" as="targetPoint" />
          </mxGeometry>
        </mxCell>
        <mxCell id="YVw0PT_iwyBrZhyOGW0D-135" value="" style="endArrow=none;html=1;rounded=0;entryX=0;entryY=0.5;entryDx=0;entryDy=0;" edge="1" parent="1" source="YVw0PT_iwyBrZhyOGW0D-129" target="YVw0PT_iwyBrZhyOGW0D-130">
          <mxGeometry width="50" height="50" relative="1" as="geometry">
            <mxPoint x="1935" y="1274" as="sourcePoint" />
            <mxPoint x="2140" y="1284" as="targetPoint" />
          </mxGeometry>
        </mxCell>
        <mxCell id="YVw0PT_iwyBrZhyOGW0D-136" value="" style="endArrow=none;html=1;rounded=0;entryX=0;entryY=0.5;entryDx=0;entryDy=0;" edge="1" parent="1" source="YVw0PT_iwyBrZhyOGW0D-129" target="YVw0PT_iwyBrZhyOGW0D-131">
          <mxGeometry width="50" height="50" relative="1" as="geometry">
            <mxPoint x="1945" y="1284" as="sourcePoint" />
            <mxPoint x="2150" y="1294" as="targetPoint" />
          </mxGeometry>
        </mxCell>
        <mxCell id="YVw0PT_iwyBrZhyOGW0D-137" value="" style="endArrow=none;html=1;rounded=0;entryX=0;entryY=0.5;entryDx=0;entryDy=0;" edge="1" parent="1" source="YVw0PT_iwyBrZhyOGW0D-129" target="YVw0PT_iwyBrZhyOGW0D-132">
          <mxGeometry width="50" height="50" relative="1" as="geometry">
            <mxPoint x="1955" y="1294" as="sourcePoint" />
            <mxPoint x="2160" y="1304" as="targetPoint" />
          </mxGeometry>
        </mxCell>
        <mxCell id="YVw0PT_iwyBrZhyOGW0D-138" value="" style="endArrow=none;html=1;rounded=0;entryX=0;entryY=0.5;entryDx=0;entryDy=0;" edge="1" parent="1" source="YVw0PT_iwyBrZhyOGW0D-129" target="YVw0PT_iwyBrZhyOGW0D-133">
          <mxGeometry width="50" height="50" relative="1" as="geometry">
            <mxPoint x="1965" y="1304" as="sourcePoint" />
            <mxPoint x="2170" y="1314" as="targetPoint" />
          </mxGeometry>
        </mxCell>
        <mxCell id="YVw0PT_iwyBrZhyOGW0D-139" value="" style="endArrow=none;html=1;rounded=0;entryX=0;entryY=0.5;entryDx=0;entryDy=0;" edge="1" parent="1" source="YVw0PT_iwyBrZhyOGW0D-128" target="YVw0PT_iwyBrZhyOGW0D-127">
          <mxGeometry width="50" height="50" relative="1" as="geometry">
            <mxPoint x="1975" y="1314" as="sourcePoint" />
            <mxPoint x="2180" y="1324" as="targetPoint" />
          </mxGeometry>
        </mxCell>
        <mxCell id="YVw0PT_iwyBrZhyOGW0D-140" value="" style="endArrow=none;html=1;rounded=0;entryX=0;entryY=0.5;entryDx=0;entryDy=0;" edge="1" parent="1" source="YVw0PT_iwyBrZhyOGW0D-128" target="YVw0PT_iwyBrZhyOGW0D-130">
          <mxGeometry width="50" height="50" relative="1" as="geometry">
            <mxPoint x="1985" y="1324" as="sourcePoint" />
            <mxPoint x="2190" y="1334" as="targetPoint" />
          </mxGeometry>
        </mxCell>
        <mxCell id="YVw0PT_iwyBrZhyOGW0D-141" value="" style="endArrow=none;html=1;rounded=0;entryX=0;entryY=0.5;entryDx=0;entryDy=0;" edge="1" parent="1" source="YVw0PT_iwyBrZhyOGW0D-128" target="YVw0PT_iwyBrZhyOGW0D-131">
          <mxGeometry width="50" height="50" relative="1" as="geometry">
            <mxPoint x="1995" y="1334" as="sourcePoint" />
            <mxPoint x="2200" y="1344" as="targetPoint" />
          </mxGeometry>
        </mxCell>
        <mxCell id="YVw0PT_iwyBrZhyOGW0D-142" value="" style="endArrow=none;html=1;rounded=0;entryX=0;entryY=0.5;entryDx=0;entryDy=0;" edge="1" parent="1" source="YVw0PT_iwyBrZhyOGW0D-128" target="YVw0PT_iwyBrZhyOGW0D-133">
          <mxGeometry width="50" height="50" relative="1" as="geometry">
            <mxPoint x="2005" y="1344" as="sourcePoint" />
            <mxPoint x="2210" y="1354" as="targetPoint" />
          </mxGeometry>
        </mxCell>
        <mxCell id="YVw0PT_iwyBrZhyOGW0D-143" value="" style="endArrow=none;html=1;rounded=0;entryX=0;entryY=0.5;entryDx=0;entryDy=0;" edge="1" parent="1" source="YVw0PT_iwyBrZhyOGW0D-125" target="YVw0PT_iwyBrZhyOGW0D-132">
          <mxGeometry width="50" height="50" relative="1" as="geometry">
            <mxPoint x="2015" y="1354" as="sourcePoint" />
            <mxPoint x="2220" y="1364" as="targetPoint" />
          </mxGeometry>
        </mxCell>
        <mxCell id="YVw0PT_iwyBrZhyOGW0D-144" value="" style="endArrow=none;html=1;rounded=0;entryX=0;entryY=0.5;entryDx=0;entryDy=0;" edge="1" parent="1" source="YVw0PT_iwyBrZhyOGW0D-125" target="YVw0PT_iwyBrZhyOGW0D-133">
          <mxGeometry width="50" height="50" relative="1" as="geometry">
            <mxPoint x="2025" y="1364" as="sourcePoint" />
            <mxPoint x="2230" y="1374" as="targetPoint" />
          </mxGeometry>
        </mxCell>
        <mxCell id="YVw0PT_iwyBrZhyOGW0D-145" value="" style="rounded=1;whiteSpace=wrap;html=1;" vertex="1" parent="1">
          <mxGeometry x="2540" y="1150" width="260" height="540" as="geometry" />
        </mxCell>
        <mxCell id="YVw0PT_iwyBrZhyOGW0D-146" value="User&lt;div&gt;&lt;br&gt;&lt;/div&gt;" style="shape=umlActor;verticalLabelPosition=bottom;verticalAlign=top;html=1;outlineConnect=0;" vertex="1" parent="1">
          <mxGeometry x="2420" y="1600" width="30" height="60" as="geometry" />
        </mxCell>
        <mxCell id="YVw0PT_iwyBrZhyOGW0D-147" value="&lt;div&gt;&lt;span style=&quot;font-size: 18px;&quot;&gt;Items&lt;/span&gt;&lt;/div&gt;" style="rounded=0;whiteSpace=wrap;html=1;" vertex="1" parent="1">
          <mxGeometry x="2610" y="1150" width="120" height="60" as="geometry" />
        </mxCell>
        <mxCell id="YVw0PT_iwyBrZhyOGW0D-148" value="&lt;span style=&quot;font-size: 18px;&quot;&gt;Create&lt;/span&gt;" style="ellipse;whiteSpace=wrap;html=1;" vertex="1" parent="1">
          <mxGeometry x="2610" y="1230" width="120" height="80" as="geometry" />
        </mxCell>
        <mxCell id="YVw0PT_iwyBrZhyOGW0D-149" value="&lt;div&gt;Manager&lt;/div&gt;" style="shape=umlActor;verticalLabelPosition=bottom;verticalAlign=top;html=1;outlineConnect=0;" vertex="1" parent="1">
          <mxGeometry x="2420" y="1420" width="30" height="60" as="geometry" />
        </mxCell>
        <mxCell id="YVw0PT_iwyBrZhyOGW0D-150" value="&lt;div&gt;Admin&lt;/div&gt;" style="shape=umlActor;verticalLabelPosition=bottom;verticalAlign=top;html=1;outlineConnect=0;" vertex="1" parent="1">
          <mxGeometry x="2420" y="1240" width="30" height="60" as="geometry" />
        </mxCell>
        <mxCell id="YVw0PT_iwyBrZhyOGW0D-151" value="&lt;span style=&quot;font-size: 18px;&quot;&gt;Edit&lt;/span&gt;" style="ellipse;whiteSpace=wrap;html=1;" vertex="1" parent="1">
          <mxGeometry x="2610" y="1320" width="120" height="80" as="geometry" />
        </mxCell>
        <mxCell id="YVw0PT_iwyBrZhyOGW0D-152" value="&lt;span style=&quot;font-size: 18px;&quot;&gt;Delete&lt;/span&gt;" style="ellipse;whiteSpace=wrap;html=1;" vertex="1" parent="1">
          <mxGeometry x="2610" y="1410" width="120" height="80" as="geometry" />
        </mxCell>
        <mxCell id="YVw0PT_iwyBrZhyOGW0D-153" value="&lt;span style=&quot;font-size: 18px;&quot;&gt;Read_all&lt;/span&gt;" style="ellipse;whiteSpace=wrap;html=1;" vertex="1" parent="1">
          <mxGeometry x="2610" y="1500" width="120" height="80" as="geometry" />
        </mxCell>
        <mxCell id="YVw0PT_iwyBrZhyOGW0D-154" value="&lt;span style=&quot;font-size: 18px;&quot;&gt;Read_one&lt;/span&gt;" style="ellipse;whiteSpace=wrap;html=1;" vertex="1" parent="1">
          <mxGeometry x="2610" y="1590" width="120" height="80" as="geometry" />
        </mxCell>
        <mxCell id="YVw0PT_iwyBrZhyOGW0D-155" value="" style="endArrow=none;html=1;rounded=0;entryX=0;entryY=0.5;entryDx=0;entryDy=0;" edge="1" parent="1" source="YVw0PT_iwyBrZhyOGW0D-150" target="YVw0PT_iwyBrZhyOGW0D-148">
          <mxGeometry width="50" height="50" relative="1" as="geometry">
            <mxPoint x="2580" y="1450" as="sourcePoint" />
            <mxPoint x="2630" y="1400" as="targetPoint" />
          </mxGeometry>
        </mxCell>
        <mxCell id="YVw0PT_iwyBrZhyOGW0D-156" value="" style="endArrow=none;html=1;rounded=0;entryX=0;entryY=0.5;entryDx=0;entryDy=0;" edge="1" parent="1" source="YVw0PT_iwyBrZhyOGW0D-150" target="YVw0PT_iwyBrZhyOGW0D-151">
          <mxGeometry width="50" height="50" relative="1" as="geometry">
            <mxPoint x="2430" y="1271" as="sourcePoint" />
            <mxPoint x="2620" y="1280" as="targetPoint" />
          </mxGeometry>
        </mxCell>
        <mxCell id="YVw0PT_iwyBrZhyOGW0D-157" value="" style="endArrow=none;html=1;rounded=0;entryX=0;entryY=0.5;entryDx=0;entryDy=0;" edge="1" parent="1" source="YVw0PT_iwyBrZhyOGW0D-150" target="YVw0PT_iwyBrZhyOGW0D-152">
          <mxGeometry width="50" height="50" relative="1" as="geometry">
            <mxPoint x="2440" y="1281" as="sourcePoint" />
            <mxPoint x="2630" y="1290" as="targetPoint" />
          </mxGeometry>
        </mxCell>
        <mxCell id="YVw0PT_iwyBrZhyOGW0D-158" value="" style="endArrow=none;html=1;rounded=0;entryX=0;entryY=0.5;entryDx=0;entryDy=0;" edge="1" parent="1" source="YVw0PT_iwyBrZhyOGW0D-150" target="YVw0PT_iwyBrZhyOGW0D-153">
          <mxGeometry width="50" height="50" relative="1" as="geometry">
            <mxPoint x="2450" y="1291" as="sourcePoint" />
            <mxPoint x="2640" y="1300" as="targetPoint" />
          </mxGeometry>
        </mxCell>
        <mxCell id="YVw0PT_iwyBrZhyOGW0D-159" value="" style="endArrow=none;html=1;rounded=0;entryX=0;entryY=0.5;entryDx=0;entryDy=0;" edge="1" parent="1" source="YVw0PT_iwyBrZhyOGW0D-150" target="YVw0PT_iwyBrZhyOGW0D-154">
          <mxGeometry width="50" height="50" relative="1" as="geometry">
            <mxPoint x="2460" y="1301" as="sourcePoint" />
            <mxPoint x="2650" y="1310" as="targetPoint" />
          </mxGeometry>
        </mxCell>
        <mxCell id="YVw0PT_iwyBrZhyOGW0D-160" value="" style="endArrow=none;html=1;rounded=0;entryX=0;entryY=0.5;entryDx=0;entryDy=0;" edge="1" parent="1" source="YVw0PT_iwyBrZhyOGW0D-149" target="YVw0PT_iwyBrZhyOGW0D-148">
          <mxGeometry width="50" height="50" relative="1" as="geometry">
            <mxPoint x="2470" y="1311" as="sourcePoint" />
            <mxPoint x="2660" y="1320" as="targetPoint" />
          </mxGeometry>
        </mxCell>
        <mxCell id="YVw0PT_iwyBrZhyOGW0D-161" value="" style="endArrow=none;html=1;rounded=0;entryX=0;entryY=0.5;entryDx=0;entryDy=0;" edge="1" parent="1" source="YVw0PT_iwyBrZhyOGW0D-149" target="YVw0PT_iwyBrZhyOGW0D-151">
          <mxGeometry width="50" height="50" relative="1" as="geometry">
            <mxPoint x="2480" y="1321" as="sourcePoint" />
            <mxPoint x="2670" y="1330" as="targetPoint" />
          </mxGeometry>
        </mxCell>
        <mxCell id="YVw0PT_iwyBrZhyOGW0D-162" value="" style="endArrow=none;html=1;rounded=0;entryX=0;entryY=0.5;entryDx=0;entryDy=0;" edge="1" parent="1" source="YVw0PT_iwyBrZhyOGW0D-149" target="YVw0PT_iwyBrZhyOGW0D-152">
          <mxGeometry width="50" height="50" relative="1" as="geometry">
            <mxPoint x="2490" y="1331" as="sourcePoint" />
            <mxPoint x="2680" y="1340" as="targetPoint" />
          </mxGeometry>
        </mxCell>
        <mxCell id="YVw0PT_iwyBrZhyOGW0D-163" value="" style="endArrow=none;html=1;rounded=0;entryX=0;entryY=0.5;entryDx=0;entryDy=0;" edge="1" parent="1" source="YVw0PT_iwyBrZhyOGW0D-149" target="YVw0PT_iwyBrZhyOGW0D-154">
          <mxGeometry width="50" height="50" relative="1" as="geometry">
            <mxPoint x="2500" y="1341" as="sourcePoint" />
            <mxPoint x="2690" y="1350" as="targetPoint" />
          </mxGeometry>
        </mxCell>
        <mxCell id="YVw0PT_iwyBrZhyOGW0D-164" value="" style="endArrow=none;html=1;rounded=0;" edge="1" parent="1" source="YVw0PT_iwyBrZhyOGW0D-146">
          <mxGeometry width="50" height="50" relative="1" as="geometry">
            <mxPoint x="2510" y="1351" as="sourcePoint" />
            <mxPoint x="2610" y="1540" as="targetPoint" />
          </mxGeometry>
        </mxCell>
        <mxCell id="YVw0PT_iwyBrZhyOGW0D-165" value="" style="endArrow=none;html=1;rounded=0;entryX=0;entryY=0.5;entryDx=0;entryDy=0;" edge="1" parent="1" source="YVw0PT_iwyBrZhyOGW0D-146" target="YVw0PT_iwyBrZhyOGW0D-154">
          <mxGeometry width="50" height="50" relative="1" as="geometry">
            <mxPoint x="2520" y="1361" as="sourcePoint" />
            <mxPoint x="2710" y="1370" as="targetPoint" />
          </mxGeometry>
        </mxCell>
        <mxCell id="YVw0PT_iwyBrZhyOGW0D-166" value="" style="rounded=1;whiteSpace=wrap;html=1;" vertex="1" parent="1">
          <mxGeometry x="3030" y="1160" width="260" height="540" as="geometry" />
        </mxCell>
        <mxCell id="YVw0PT_iwyBrZhyOGW0D-167" value="User&lt;div&gt;&lt;br&gt;&lt;/div&gt;" style="shape=umlActor;verticalLabelPosition=bottom;verticalAlign=top;html=1;outlineConnect=0;" vertex="1" parent="1">
          <mxGeometry x="2895" y="1250" width="30" height="60" as="geometry" />
        </mxCell>
        <mxCell id="YVw0PT_iwyBrZhyOGW0D-168" value="&lt;span style=&quot;font-size: 18px;&quot;&gt;Orders&lt;/span&gt;" style="rounded=0;whiteSpace=wrap;html=1;" vertex="1" parent="1">
          <mxGeometry x="3100" y="1160" width="120" height="60" as="geometry" />
        </mxCell>
        <mxCell id="YVw0PT_iwyBrZhyOGW0D-169" value="&lt;span style=&quot;font-size: 18px;&quot;&gt;Create&lt;/span&gt;" style="ellipse;whiteSpace=wrap;html=1;" vertex="1" parent="1">
          <mxGeometry x="3100" y="1240" width="120" height="80" as="geometry" />
        </mxCell>
        <mxCell id="YVw0PT_iwyBrZhyOGW0D-170" value="&lt;div&gt;Manager&lt;/div&gt;" style="shape=umlActor;verticalLabelPosition=bottom;verticalAlign=top;html=1;outlineConnect=0;" vertex="1" parent="1">
          <mxGeometry x="2895" y="1534" width="30" height="60" as="geometry" />
        </mxCell>
        <mxCell id="YVw0PT_iwyBrZhyOGW0D-172" value="&lt;span style=&quot;font-size: 18px;&quot;&gt;Edit&lt;/span&gt;" style="ellipse;whiteSpace=wrap;html=1;" vertex="1" parent="1">
          <mxGeometry x="3100" y="1330" width="120" height="80" as="geometry" />
        </mxCell>
        <mxCell id="YVw0PT_iwyBrZhyOGW0D-173" value="&lt;span style=&quot;font-size: 18px;&quot;&gt;Delete&lt;/span&gt;" style="ellipse;whiteSpace=wrap;html=1;" vertex="1" parent="1">
          <mxGeometry x="3100" y="1420" width="120" height="80" as="geometry" />
        </mxCell>
        <mxCell id="YVw0PT_iwyBrZhyOGW0D-175" value="&lt;span style=&quot;font-size: 18px;&quot;&gt;Read_one&lt;/span&gt;" style="ellipse;whiteSpace=wrap;html=1;" vertex="1" parent="1">
          <mxGeometry x="3100" y="1524" width="120" height="80" as="geometry" />
        </mxCell>
        <mxCell id="YVw0PT_iwyBrZhyOGW0D-181" value="" style="endArrow=none;html=1;rounded=0;entryX=0;entryY=0.5;entryDx=0;entryDy=0;exitX=0.5;exitY=0.5;exitDx=0;exitDy=0;exitPerimeter=0;" edge="1" parent="1" source="YVw0PT_iwyBrZhyOGW0D-170" target="YVw0PT_iwyBrZhyOGW0D-175">
          <mxGeometry width="50" height="50" relative="1" as="geometry">
            <mxPoint x="2960" y="1321" as="sourcePoint" />
            <mxPoint x="3150" y="1330" as="targetPoint" />
          </mxGeometry>
        </mxCell>
        <mxCell id="YVw0PT_iwyBrZhyOGW0D-182" value="" style="endArrow=none;html=1;rounded=0;entryX=0;entryY=0.5;entryDx=0;entryDy=0;" edge="1" parent="1" source="YVw0PT_iwyBrZhyOGW0D-167" target="YVw0PT_iwyBrZhyOGW0D-169">
          <mxGeometry width="50" height="50" relative="1" as="geometry">
            <mxPoint x="2970" y="1331" as="sourcePoint" />
            <mxPoint x="3160" y="1340" as="targetPoint" />
          </mxGeometry>
        </mxCell>
        <mxCell id="YVw0PT_iwyBrZhyOGW0D-183" value="" style="endArrow=none;html=1;rounded=0;entryX=0;entryY=0.5;entryDx=0;entryDy=0;" edge="1" parent="1" source="YVw0PT_iwyBrZhyOGW0D-167" target="YVw0PT_iwyBrZhyOGW0D-172">
          <mxGeometry width="50" height="50" relative="1" as="geometry">
            <mxPoint x="2980" y="1341" as="sourcePoint" />
            <mxPoint x="3170" y="1350" as="targetPoint" />
          </mxGeometry>
        </mxCell>
        <mxCell id="YVw0PT_iwyBrZhyOGW0D-184" value="" style="endArrow=none;html=1;rounded=0;entryX=0;entryY=0.5;entryDx=0;entryDy=0;" edge="1" parent="1" source="YVw0PT_iwyBrZhyOGW0D-167" target="YVw0PT_iwyBrZhyOGW0D-173">
          <mxGeometry width="50" height="50" relative="1" as="geometry">
            <mxPoint x="2990" y="1351" as="sourcePoint" />
            <mxPoint x="3180" y="1360" as="targetPoint" />
          </mxGeometry>
        </mxCell>
        <mxCell id="YVw0PT_iwyBrZhyOGW0D-185" value="" style="endArrow=none;html=1;rounded=0;entryX=0;entryY=0.5;entryDx=0;entryDy=0;" edge="1" parent="1" source="YVw0PT_iwyBrZhyOGW0D-167" target="YVw0PT_iwyBrZhyOGW0D-175">
          <mxGeometry width="50" height="50" relative="1" as="geometry">
            <mxPoint x="3000" y="1361" as="sourcePoint" />
            <mxPoint x="3190" y="1370" as="targetPoint" />
          </mxGeometry>
        </mxCell>
        <mxCell id="YVw0PT_iwyBrZhyOGW0D-186" value="" style="endArrow=none;html=1;rounded=0;entryX=0;entryY=0.5;entryDx=0;entryDy=0;exitX=0.5;exitY=0.5;exitDx=0;exitDy=0;exitPerimeter=0;" edge="1" parent="1" source="YVw0PT_iwyBrZhyOGW0D-170" target="YVw0PT_iwyBrZhyOGW0D-172">
          <mxGeometry width="50" height="50" relative="1" as="geometry">
            <mxPoint x="2920" y="1640" as="sourcePoint" />
            <mxPoint x="3100" y="1805" as="targetPoint" />
          </mxGeometry>
        </mxCell>
      </root>
    </mxGraphModel>
  </diagram>
</mxfile>
